<svg width="512" height="512" viewBox="0 0 256 256" xmlns="http://www.w3.org/2000/svg" role="img" aria-labelledby="title desc">
  <title id="title">MiniMem icon</title>
  <desc id="desc">A radial memory-node icon with a soft gradient core.</desc>
  <defs>
    <radialGradient id="coreGlow" cx="50%" cy="50%" r="50%">
      <stop offset="0%" stop-color="#4FD1C5" stop-opacity="0.9"/>
      <stop offset="100%" stop-color="#4FD1C5" stop-opacity="0"/>
    </radialGradient>
    <linearGradient id="nodeFill" x1="0%" y1="0%" x2="100%" y2="100%">
      <stop offset="0%" stop-color="#111827"/>
      <stop offset="100%" stop-color="#0F172A"/>
    </linearGradient>
  </defs>

  <circle cx="128" cy="128" r="72" fill="url(#coreGlow)"/>

  <circle cx="128" cy="128" r="19" fill="url(#nodeFill)"/>

  <g fill="url(#nodeFill)">
    <circle cx="128" cy="54" r="10"/>
    <circle cx="163" cy="62" r="9"/>
    <circle cx="192" cy="84" r="8"/>
    <circle cx="206" cy="116" r="7"/>
    <circle cx="202" cy="151" r="8"/>
    <circle cx="184" cy="181" r="9"/>
    <circle cx="154" cy="199" r="8"/>
    <circle cx="121" cy="204" r="9"/>
    <circle cx="88" cy="196" r="8"/>
    <circle cx="61" cy="175" r="9"/>
    <circle cx="49" cy="143" r="8"/>
    <circle cx="52" cy="109" r="7"/>
    <circle cx="68" cy="79" r="8"/>
    <circle cx="96" cy="59" r="9"/>
  </g>

  <g fill="url(#nodeFill)">
    <circle cx="128" cy="82" r="7"/>
    <circle cx="153" cy="90" r="6"/>
    <circle cx="171" cy="108" r="6"/>
    <circle cx="176" cy="133" r="6"/>
    <circle cx="166" cy="157" r="6"/>
    <circle cx="145" cy="171" r="6"/>
    <circle cx="120" cy="173" r="6"/>
    <circle cx="98" cy="162" r="6"/>
    <circle cx="84" cy="141" r="6"/>
    <circle cx="83" cy="116" r="6"/>
    <circle cx="95" cy="94" r="6"/>
  </g>
</svg>
